<svg width="48" height="48" viewBox="0 0 48 48" fill="none" xmlns="http://www.w3.org/2000/svg">
<path d="M6 32.9439C3.925 32.9439 0 31.8119 0 27.5279C0 23.5309 3.503 21.5779 5.858 21.2399C11.135 20.4849 14.275 20.7519 26.435 26.6279C41.229 33.7779 47 25.9439 47 25.9439C47 25.9439 45.316 29.9829 41 30.9439C37.714 31.6749 32.784 31.9169 25.564 28.4279C13.91 22.7969 10.985 22.5239 6.142 23.2199C4.99 23.3849 2 24.4809 2 27.5279C2 30.9049 5.837 30.9439 6 30.9439C6.553 30.9439 7 31.3909 7 31.9439C7 32.4969 6.553 32.9439 6 32.9439Z" fill="#F57C00"/>
<path d="M21.039 17.5688C20.395 17.5688 19.752 17.4138 19.168 17.1048L5 9.60477V19.3668C5.196 19.3238 5.389 19.2868 5.575 19.2598C6.694 19.0998 8.029 18.9358 9.444 18.9358C13.684 18.9358 18.192 20.4218 27.306 24.8268C31.164 26.6918 34.69 27.6378 37.785 27.6378C39.024 27.6378 40.086 27.4818 41 27.2478V8.06177L22.828 17.1478C22.266 17.4288 21.652 17.5688 21.039 17.5688Z" fill="#F57C00"/>
<path d="M20.104 15.3378C20.674 15.6388 21.358 15.6478 21.934 15.3588L40.983 5.8338C40.896 4.7878 40.014 3.9708 38.944 4.0008L6.944 4.8898C5.862 4.9198 5 5.8058 5 6.8888V7.3418L20.104 15.3378Z" fill="#F57C00"/>
<path d="M37.785 29.6368C34.821 29.6368 31.071 28.8678 26.436 26.6268C17.195 22.1618 13.164 20.9358 9.445 20.9358C8.27 20.9358 7.126 21.0578 5.859 21.2398C5.586 21.2788 5.296 21.3488 5 21.4328V32.9988C5 34.0818 5.862 34.9678 6.944 34.9978L38.944 35.8868C40.07 35.9178 41 35.0138 41 33.8878V29.2988C40.052 29.5058 38.987 29.6368 37.785 29.6368Z" fill="#F57C00"/>
<path d="M37 21.6168V23.3888C38.543 23.3848 39.871 23.1958 41 22.9448C45.316 21.9838 46 17.9448 46 17.9448C46 17.9448 44.058 21.9288 37 21.6168Z" fill="#F57C00"/>
<rect x="31.9062" y="30.3125" width="12.6562" height="10.3125" fill="white"/>
<path d="M38 25C43.5229 25 48 29.4771 48 35C48 40.5229 43.5229 45 38 45C32.4771 45 28 40.5229 28 35C28 29.4771 32.4771 25 38 25ZM42.1742 33.11C42.5496 32.5304 42.3842 31.7567 41.8046 31.3813C41.2254 31.0058 40.4517 31.1717 40.0763 31.7504L37.1037 36.3383L35.8133 34.8721C35.3575 34.3542 34.5675 34.3038 34.0496 34.7592C33.5312 35.2154 33.4808 36.005 33.9367 36.5233L36.3171 39.2287C36.555 39.4992 36.8979 39.6529 37.2554 39.6529C37.2858 39.6529 37.3162 39.6521 37.3471 39.6496C37.7375 39.6208 38.0917 39.4112 38.3046 39.0829L42.1742 33.11Z" fill="#40C057"/>
</svg>
