<svg width="48" height="48" viewBox="0 0 48 48" fill="none" xmlns="http://www.w3.org/2000/svg">
<path d="M6 36.9439C3.925 36.9439 0 35.8119 0 31.5279C0 27.5309 3.503 25.5779 5.858 25.2399C11.135 24.4849 14.275 24.7519 26.435 30.6279C41.229 37.7779 47 29.9439 47 29.9439C47 29.9439 45.316 33.9829 41 34.9439C37.714 35.6749 32.784 35.9169 25.564 32.4279C13.91 26.7969 10.985 26.5239 6.142 27.2199C4.99 27.3849 2 28.4809 2 31.5279C2 34.9049 5.837 34.9439 6 34.9439C6.553 34.9439 7 35.3909 7 35.9439C7 36.4969 6.553 36.9439 6 36.9439Z" fill="#F57C00"/>
<path d="M21.039 21.5688C20.395 21.5688 19.752 21.4138 19.168 21.1048L5 13.6048V23.3668C5.196 23.3238 5.389 23.2868 5.575 23.2598C6.694 23.0998 8.029 22.9358 9.444 22.9358C13.684 22.9358 18.192 24.4218 27.306 28.8268C31.164 30.6918 34.69 31.6378 37.785 31.6378C39.024 31.6378 40.086 31.4818 41 31.2478V12.0618L22.828 21.1478C22.266 21.4288 21.652 21.5688 21.039 21.5688Z" fill="#F57C00"/>
<path d="M20.104 19.3378C20.674 19.6388 21.358 19.6478 21.934 19.3588L40.983 9.8338C40.896 8.7878 40.014 7.9708 38.944 8.0008L6.944 8.8898C5.862 8.9198 5 9.8058 5 10.8888V11.3418L20.104 19.3378Z" fill="#F57C00"/>
<path d="M37.785 33.6368C34.821 33.6368 31.071 32.8678 26.436 30.6268C17.195 26.1618 13.164 24.9358 9.445 24.9358C8.27 24.9358 7.126 25.0578 5.859 25.2398C5.586 25.2788 5.296 25.3488 5 25.4328V36.9988C5 38.0818 5.862 38.9678 6.944 38.9978L38.944 39.8868C40.07 39.9178 41 39.0138 41 37.8878V33.2988C40.052 33.5058 38.987 33.6368 37.785 33.6368Z" fill="#F57C00"/>
<path d="M37 25.6168V27.3888C38.543 27.3848 39.871 27.1958 41 26.9448C45.316 25.9838 46 21.9448 46 21.9448C46 21.9448 44.058 25.9288 37 25.6168Z" fill="#F57C00"/>
</svg>
