<svg width="48" height="48" viewBox="0 0 48 48" fill="none" xmlns="http://www.w3.org/2000/svg">
<path d="M28.3232 8.50225L4.07523 23.8722L1.99023 20.5823V17.7472C1.99023 16.7152 2.51323 15.7532 3.37923 15.1912L17.4742 6.04525C19.6212 4.65225 22.3882 4.65125 24.5352 6.04425L28.3232 8.50225Z" fill="#40C4FF"/>
<path d="M24.3172 5.91113C24.3902 5.95413 24.4622 5.99913 24.5342 6.04613L35.5342 13.1821L8.25922 30.4701L4.07422 23.8671L24.0912 11.1541C25.9882 9.95013 26.0712 7.24113 24.3172 5.91113Z" fill="#1976D2"/>
<path d="M19.1418 33.7712L8.25977 30.4702L31.3958 15.8042C33.3448 14.5692 33.3398 11.7242 31.3868 10.4962L31.2828 10.4312L31.5828 10.6172L38.6238 15.1852C39.4898 15.7472 40.0128 16.7092 40.0128 17.7412V20.4852L19.1418 33.7712Z" fill="#0D47A1"/>
<path d="M17.8861 43.0004H33.4091C37.0551 43.0004 40.0111 40.0444 40.0111 36.3984V17.7974C40.0111 18.8744 39.4571 19.8764 38.5451 20.4494L15.4551 34.9474C14.2091 35.7294 13.4541 37.0974 13.4541 38.5674C13.4541 41.0164 15.4381 43.0004 17.8861 43.0004Z" fill="#29B6F6"/>
<path d="M24.1978 42.9992H8.58882C4.94282 42.9992 1.98682 40.0432 1.98682 36.3972V17.7832C1.98682 18.8592 2.53882 19.8592 3.44782 20.4322L26.5148 34.9752C27.7778 35.7712 28.5438 37.1602 28.5438 38.6532C28.5438 41.0532 26.5978 42.9992 24.1978 42.9992Z" fill="url(#paint0_radial_18_1328)"/>
<path d="M24.1978 42.9992H8.58882C4.94282 42.9992 1.98682 40.0432 1.98682 36.3972V17.7832C1.98682 18.8592 2.53882 19.8592 3.44782 20.4322L26.5148 34.9752C27.7778 35.7712 28.5438 37.1602 28.5438 38.6532C28.5438 41.0532 26.5978 42.9992 24.1978 42.9992Z" fill="#80D8FF"/>
<path d="M8.28214 36.2363C6.88414 36.2363 5.73714 35.7993 4.84014 34.9243C3.94314 34.0503 3.49414 32.9093 3.49414 31.5013C3.49414 30.0153 3.94914 28.8123 4.86014 27.8943C5.77114 26.9763 6.96314 26.5173 8.43714 26.5173C9.83014 26.5173 10.9631 26.9563 11.8381 27.8353C12.7171 28.7143 13.1571 29.8723 13.1571 31.3103C13.1571 32.7883 12.7011 33.9793 11.7911 34.8843C10.8851 35.7863 9.71614 36.2363 8.28214 36.2363ZM8.32314 34.3813C9.08514 34.3813 9.69814 34.1213 10.1621 33.6013C10.6261 33.0813 10.8581 32.3573 10.8581 31.4303C10.8581 30.4643 10.6321 29.7123 10.1821 29.1743C9.73114 28.6363 9.12914 28.3683 8.37714 28.3683C7.60214 28.3683 6.97714 28.6463 6.50414 29.2013C6.03114 29.7523 5.79414 30.4823 5.79414 31.3913C5.79414 32.3143 6.03114 33.0443 6.50414 33.5813C6.97714 34.1143 7.58314 34.3813 8.32314 34.3813Z" fill="white"/>
<path d="M3.453 23.0002H13.547C15.454 23.0002 17 24.5462 17 26.4532V36.5472C17 38.4542 15.454 40.0002 13.547 40.0002H3.453C1.546 40.0002 0 38.4542 0 36.5472V26.4532C0 24.5462 1.546 23.0002 3.453 23.0002Z" fill="#1565C0"/>
<path d="M8.45276 36.5183C7.05276 36.5183 5.90276 36.0663 5.00376 35.1633C4.10476 34.2603 3.65576 33.0813 3.65576 31.6263C3.65576 30.0903 4.11176 28.8483 5.02476 27.9003C5.93776 26.9513 7.13176 26.4773 8.60876 26.4773C10.0048 26.4773 11.1408 26.9313 12.0168 27.8393C12.8978 28.7473 13.3378 29.9443 13.3378 31.4303C13.3378 32.9573 12.8818 34.1883 11.9688 35.1223C11.0608 36.0533 9.88876 36.5183 8.45276 36.5183ZM8.49276 34.6013C9.25576 34.6013 9.87076 34.3323 10.3358 33.7953C10.8008 33.2573 11.0338 32.5103 11.0338 31.5523C11.0338 30.5543 10.8078 29.7773 10.3568 29.2213C9.90476 28.6653 9.30176 28.3883 8.54776 28.3883C7.77076 28.3883 7.14476 28.6753 6.67076 29.2493C6.19676 29.8183 5.95976 30.5723 5.95976 31.5123C5.95976 32.4653 6.19676 33.2193 6.67076 33.7753C7.14476 34.3263 7.75176 34.6013 8.49276 34.6013Z" fill="white"/>
<defs>
<radialGradient id="paint0_radial_18_1328" cx="0" cy="0" r="1" gradientUnits="userSpaceOnUse" gradientTransform="translate(15.4181 27.6151) rotate(123.339) scale(21.7621 56.4752)">
<stop stop-color="#49DEFF"/>
<stop offset="0.724" stop-color="#29C3FF"/>
</radialGradient>
</defs>
</svg>
