<svg width="48" height="48" viewBox="0 0 48 48" fill="none" xmlns="http://www.w3.org/2000/svg">
<path d="M28.3232 4.50225L4.07523 19.8722L1.99023 16.5823V13.7472C1.99023 12.7152 2.51323 11.7532 3.37923 11.1912L17.4742 2.04525C19.6212 0.65225 22.3882 0.65125 24.5352 2.04425L28.3232 4.50225Z" fill="#40C4FF"/>
<path d="M24.3172 1.91113C24.3902 1.95413 24.4622 1.99913 24.5342 2.04613L35.5342 9.18213L8.25922 26.4701L4.07422 19.8671L24.0912 7.15413C25.9882 5.95013 26.0712 3.24113 24.3172 1.91113Z" fill="#1976D2"/>
<path d="M19.1418 29.7712L8.25977 26.4702L31.3958 11.8042C33.3448 10.5692 33.3398 7.72415 31.3868 6.49615L31.2828 6.43115L31.5828 6.61715L38.6238 11.1852C39.4898 11.7472 40.0128 12.7092 40.0128 13.7412V16.4852L19.1418 29.7712Z" fill="#0D47A1"/>
<path d="M17.8861 39.0004H33.4091C37.0551 39.0004 40.0111 36.0444 40.0111 32.3984V13.7974C40.0111 14.8744 39.4571 15.8764 38.5451 16.4494L15.4551 30.9474C14.2091 31.7294 13.4541 33.0974 13.4541 34.5674C13.4541 37.0164 15.4381 39.0004 17.8861 39.0004Z" fill="#29B6F6"/>
<path d="M24.1978 38.9992H8.58882C4.94282 38.9992 1.98682 36.0432 1.98682 32.3972V13.7832C1.98682 14.8592 2.53882 15.8592 3.44782 16.4322L26.5148 30.9752C27.7778 31.7712 28.5438 33.1602 28.5438 34.6532C28.5438 37.0532 26.5978 38.9992 24.1978 38.9992Z" fill="url(#paint0_radial_18_1316)"/>
<path d="M24.1978 38.9992H8.58882C4.94282 38.9992 1.98682 36.0432 1.98682 32.3972V13.7832C1.98682 14.8592 2.53882 15.8592 3.44782 16.4322L26.5148 30.9752C27.7778 31.7712 28.5438 33.1602 28.5438 34.6532C28.5438 37.0532 26.5978 38.9992 24.1978 38.9992Z" fill="#80D8FF"/>
<path d="M8.28214 32.2363C6.88414 32.2363 5.73714 31.7993 4.84014 30.9243C3.94314 30.0503 3.49414 28.9093 3.49414 27.5013C3.49414 26.0153 3.94914 24.8123 4.86014 23.8943C5.77114 22.9763 6.96314 22.5173 8.43714 22.5173C9.83014 22.5173 10.9631 22.9563 11.8381 23.8353C12.7171 24.7143 13.1571 25.8723 13.1571 27.3103C13.1571 28.7883 12.7011 29.9793 11.7911 30.8843C10.8851 31.7863 9.71614 32.2363 8.28214 32.2363ZM8.32314 30.3813C9.08514 30.3813 9.69814 30.1213 10.1621 29.6013C10.6261 29.0813 10.8581 28.3573 10.8581 27.4303C10.8581 26.4643 10.6321 25.7123 10.1821 25.1743C9.73114 24.6363 9.12914 24.3683 8.37714 24.3683C7.60214 24.3683 6.97714 24.6463 6.50414 25.2013C6.03114 25.7523 5.79414 26.4823 5.79414 27.3913C5.79414 28.3143 6.03114 29.0443 6.50414 29.5813C6.97714 30.1143 7.58314 30.3813 8.32314 30.3813Z" fill="white"/>
<path d="M3.453 19.0002H13.547C15.454 19.0002 17 20.5462 17 22.4532V32.5472C17 34.4542 15.454 36.0002 13.547 36.0002H3.453C1.546 36.0002 0 34.4542 0 32.5472V22.4532C0 20.5462 1.546 19.0002 3.453 19.0002Z" fill="#1565C0"/>
<path d="M8.45276 32.5183C7.05276 32.5183 5.90276 32.0663 5.00376 31.1633C4.10476 30.2603 3.65576 29.0813 3.65576 27.6263C3.65576 26.0903 4.11176 24.8483 5.02476 23.9003C5.93776 22.9513 7.13176 22.4773 8.60876 22.4773C10.0048 22.4773 11.1408 22.9313 12.0168 23.8393C12.8978 24.7473 13.3378 25.9443 13.3378 27.4303C13.3378 28.9573 12.8818 30.1883 11.9688 31.1223C11.0608 32.0533 9.88876 32.5183 8.45276 32.5183ZM8.49276 30.6013C9.25576 30.6013 9.87076 30.3323 10.3358 29.7953C10.8008 29.2573 11.0338 28.5103 11.0338 27.5523C11.0338 26.5543 10.8078 25.7773 10.3568 25.2213C9.90476 24.6653 9.30176 24.3883 8.54776 24.3883C7.77076 24.3883 7.14476 24.6753 6.67076 25.2493C6.19676 25.8183 5.95976 26.5723 5.95976 27.5123C5.95976 28.4653 6.19676 29.2193 6.67076 29.7753C7.14476 30.3263 7.75176 30.6013 8.49276 30.6013Z" fill="white"/>
<rect x="31.9062" y="32.3125" width="12.6562" height="10.3125" fill="white"/>
<path d="M38 27C43.5229 27 48 31.4771 48 37C48 42.5229 43.5229 47 38 47C32.4771 47 28 42.5229 28 37C28 31.4771 32.4771 27 38 27ZM42.1742 35.11C42.5496 34.5304 42.3842 33.7567 41.8046 33.3813C41.2254 33.0058 40.4517 33.1717 40.0763 33.7504L37.1037 38.3383L35.8133 36.8721C35.3575 36.3542 34.5675 36.3038 34.0496 36.7592C33.5312 37.2154 33.4808 38.005 33.9367 38.5233L36.3171 41.2287C36.555 41.4992 36.8979 41.6529 37.2554 41.6529C37.2858 41.6529 37.3162 41.6521 37.3471 41.6496C37.7375 41.6208 38.0917 41.4112 38.3046 41.0829L42.1742 35.11Z" fill="#40C057"/>
<rect x="31.9062" y="32.3125" width="12.6562" height="10.3125" fill="white"/>
<path d="M38 27C43.5229 27 48 31.4771 48 37C48 42.5229 43.5229 47 38 47C32.4771 47 28 42.5229 28 37C28 31.4771 32.4771 27 38 27ZM42.1742 35.11C42.5496 34.5304 42.3842 33.7567 41.8046 33.3813C41.2254 33.0058 40.4517 33.1717 40.0763 33.7504L37.1037 38.3383L35.8133 36.8721C35.3575 36.3542 34.5675 36.3038 34.0496 36.7592C33.5312 37.2154 33.4808 38.005 33.9367 38.5233L36.3171 41.2287C36.555 41.4992 36.8979 41.6529 37.2554 41.6529C37.2858 41.6529 37.3162 41.6521 37.3471 41.6496C37.7375 41.6208 38.0917 41.4112 38.3046 41.0829L42.1742 35.11Z" fill="#40C057"/>
<defs>
<radialGradient id="paint0_radial_18_1316" cx="0" cy="0" r="1" gradientUnits="userSpaceOnUse" gradientTransform="translate(15.4181 23.6151) rotate(123.339) scale(21.7621 56.4752)">
<stop stop-color="#49DEFF"/>
<stop offset="0.724" stop-color="#29C3FF"/>
</radialGradient>
</defs>
</svg>
